HIERARCHY
ROOT Hips
{
	OFFSET 0.00000 0.00000 0.00000
	CHANNELS 6 Xposition Yposition Zposition Zrotation Yrotation Xrotation 
	JOINT LHipJoint
	{
		OFFSET 0 0 0
		CHANNELS 3 Zrotation Yrotation Xrotation
		JOINT LeftHip
		{
			OFFSET 1.58161 -1.81893 0.78828
			CHANNELS 3 Zrotation Yrotation Xrotation
			JOINT LeftKnee
			{
				OFFSET 2.53374 -6.96141 0.00000
				CHANNELS 3 Zrotation Yrotation Xrotation
				JOINT LeftAnkle
				{
					OFFSET 2.63509 -7.23986 0.00000
					CHANNELS 3 Zrotation Yrotation Xrotation
					JOINT LeftToe
					{
						OFFSET 0.14115 -0.38781 2.05350
						CHANNELS 3 Zrotation Yrotation Xrotation
						End Site
						{
							OFFSET 0.00000 -0.00000 1.05543
						}
					}
				}
			}
		}
	}
	JOINT RHipJoint
	{
		OFFSET 0 0 0
		CHANNELS 3 Zrotation Yrotation Xrotation
		JOINT RightHip
		{
			OFFSET -1.11138 -1.81893 0.78828
			CHANNELS 3 Zrotation Yrotation Xrotation
			JOINT RightKnee
			{
				OFFSET -2.58392 -7.09926 0.00000
				CHANNELS 3 Zrotation Yrotation Xrotation
				JOINT RightAnkle
				{
					OFFSET -2.66423 -7.31992 0.00000
					CHANNELS 3 Zrotation Yrotation Xrotation
					JOINT RightToe
					{
						OFFSET -0.18831 -0.51739 2.12114
						CHANNELS 3 Zrotation Yrotation Xrotation
						End Site
						{
							OFFSET -0.00000 -0.00000 1.09845
						}
					}
				}
			}
		}
	}
	JOINT lowerback
	{
		OFFSET 0 0 0
		CHANNELS 3 Zrotation Yrotation Xrotation
		JOINT Chest
		{
			OFFSET -0.01511 1.97958 -0.08829
			CHANNELS 3 Zrotation Yrotation Xrotation
			JOINT Chest2
			{
				OFFSET 0.08344 1.97334 -0.04330
				CHANNELS 3 Zrotation Yrotation Xrotation
				JOINT lowerneck
				{
					OFFSET 0 0 0
					CHANNELS 3 Zrotation Yrotation Xrotation
					JOINT Neck
					{
						OFFSET 0.00559 1.76246 0.31246
						CHANNELS 3 Zrotation Yrotation Xrotation
						JOINT Head
						{
							OFFSET -0.07011 1.80354 -0.30524
							CHANNELS 3 Zrotation Yrotation Xrotation
							End Site
							{
								OFFSET -0.02385 1.83547 -0.13906
							}
						}
					}
				}
				JOINT LeftCollar
				{
					OFFSET 0 0 0
					CHANNELS 3 Zrotation Yrotation Xrotation
					JOINT LeftShoulder
					{
						OFFSET 3.20667 1.30156 -0.60240
CHANNELS 3 Zrotation Xrotation Yrotation
						JOINT LeftElbow
						{
OFFSET 0 -4.956630 0.000000
CHANNELS 3 Zrotation Xrotation Yrotation
							JOINT LeftWrist
							{
OFFSET 0 -3.381770 0.000000
CHANNELS 3 Zrotation Xrotation Yrotation
								JOINT lhand
								{
									OFFSET 0 0 0
CHANNELS 3 Zrotation Xrotation Yrotation
									JOINT LFingers
									{
OFFSET 0 -0.662910 0.000000
CHANNELS 3 Zrotation Xrotation Yrotation
										End Site
										{
OFFSET 0 -0.534450 0.000000
										}
									}
								}
								JOINT LThumb
								{
OFFSET 0 0.000000 0.000000
CHANNELS 3 Zrotation Xrotation Yrotation
									End Site
									{
OFFSET 0 -0.542610 0.542610
									}
								}
							}
						}
					}
				}
				JOINT RightCollar
				{
					OFFSET 0 0 0
					CHANNELS 3 Zrotation Yrotation Xrotation
					JOINT RightShoulder
					{
						OFFSET -3.06877 1.34672 -0.60964
CHANNELS 3 Zrotation Xrotation Yrotation
						JOINT RightElbow
						{
OFFSET 0 -5.083650 0.000000
CHANNELS 3 Zrotation Xrotation Yrotation
							JOINT RightWrist
							{
OFFSET 0 -3.359840 0.000000
CHANNELS 3 Zrotation Xrotation Yrotation
								JOINT rhand
								{
									OFFSET 0 0 0
CHANNELS 3 Zrotation Xrotation Yrotation
									JOINT RFingers
									{
OFFSET 0 -0.820760 0.000000
CHANNELS 3 Zrotation Xrotation Yrotation
										End Site
										{
OFFSET 0 -0.661720 0.000000
										}
									}
								}
								JOINT RThumb
								{
OFFSET 0 0.000000 0.000000
CHANNELS 3 Zrotation Xrotation Yrotation
									End Site
									{
OFFSET 0 -0.671820 0.671820
									}
								}
							}
						}
					}
				}
			}
		}
	}
}
MOTION
Frames: 10
Frame Time: 0.008333333333333333
-10.263227 17.932028 5.559034 -33.717669 76.188600 -18.391394 0.000000 0.000000 0.000000 -5.264547 -0.062078 -29.060922 2.846025 10.441515 30.418679 0.458519 1.173637 -13.270259 0.892974 -6.022307 -16.849318 0.000000 0.000000 0.000000 18.401392 11.705953 -29.016675 -1.963029 -8.788677 25.136513 -0.049719 5.573450 -5.246446 -0.000445 -0.104082 0.286004 -3.705851 1.364107 4.190772 2.145658 1.839618 5.672346 4.279524 0.790178 3.334259 4.429438 2.346057 -12.131813 -5.501143 7.071257 42.299542 -1.906046 3.400351 18.277064 0.000000 0.000000 0.000000 -10.755855 -22.318161 -74.493808 19.282011 -29.767693 5.170137 0.296787 -47.306207 -55.014242 0.000000 0.000000 0.000000 -7.125000 0.000000 0.000000 -78.443112 71.944356 59.274409 0.000000 0.000000 0.000000 6.430671 -19.577029 58.207261 -21.522305 -32.432907 -6.327735 -33.290086 -36.972197 9.042862 0.000000 0.000000 0.000000 7.125000 0.000000 0.000000 -5.635482 40.696022 -0.600318
-10.262354 17.932572 5.554294 -33.898152 76.363296 -18.565156 0.000000 0.000000 0.000000 -5.312458 -0.185011 -29.071692 2.840947 10.432942 30.390531 0.459784 1.065743 -13.238596 0.850232 -5.880384 -16.437878 0.000000 0.000000 0.000000 18.334038 11.579374 -29.064729 -1.967550 -8.798146 25.166038 -0.051959 5.554174 -5.291172 -0.000009 0.015595 -0.042836 -3.674205 1.381454 4.208209 2.152221 1.862281 5.652940 4.267100 0.803603 3.302310 4.434627 2.288274 -12.096529 -5.513575 6.990568 42.290257 -1.927713 3.370920 18.255171 0.000000 0.000000 0.000000 -10.775923 -22.287813 -74.549341 19.289127 -29.776442 5.173650 1.927976 -45.923104 -55.319436 0.000000 0.000000 0.000000 -7.125000 0.000000 0.000000 -78.732907 72.575234 60.313428 0.000000 0.000000 0.000000 6.420578 -19.545810 58.109550 -21.543978 -32.457768 -6.339346 -33.354232 -37.119960 8.958025 0.000000 0.000000 0.000000 7.125000 0.000000 0.000000 -5.692024 40.602249 -0.619536
-10.261990 17.932354 5.549490 -34.026987 76.534493 -18.674993 0.000000 0.000000 0.000000 -5.366030 -0.317485 -29.087487 2.834978 10.422970 30.357486 0.461239 0.962239 -13.213994 0.795786 -5.693173 -15.897063 0.000000 0.000000 0.000000 18.240796 11.500690 -29.109348 -1.971117 -8.805643 25.189330 -0.055598 5.475490 -5.341687 -0.000082 0.055192 -0.151727 -3.634608 1.402489 4.208282 2.139701 1.890668 5.634234 4.230633 0.820271 3.280983 4.441979 2.238123 -12.061882 -5.500691 6.907080 42.270094 -1.938122 3.343333 18.224819 0.000000 0.000000 0.000000 -10.772138 -22.240356 -74.559968 19.310745 -29.802937 5.184350 1.181826 -46.478841 -55.079527 0.000000 0.000000 0.000000 -7.125000 0.000000 0.000000 -78.266045 72.267923 59.493181 0.000000 0.000000 0.000000 6.526630 -19.568083 57.989450 -21.489896 -32.395680 -6.310376 -33.343386 -37.138666 8.912241 0.000000 0.000000 0.000000 7.125000 0.000000 0.000000 -5.681906 40.547149 -0.626159
-10.261352 17.932410 5.545781 -33.971999 76.670372 -18.595751 0.000000 0.000000 0.000000 -5.447638 -0.395749 -29.114289 2.829776 10.414258 30.328875 0.463297 0.863881 -13.200015 0.765708 -5.587716 -15.592912 0.000000 0.000000 0.000000 18.102435 11.533384 -29.116403 -1.971562 -8.806624 25.192307 -0.060388 5.329673 -5.391052 -0.000100 0.055910 -0.153621 -3.689907 1.419802 4.182126 2.141419 1.913470 5.632393 4.263983 0.829328 3.290101 4.434272 2.215953 -12.043225 -5.492572 6.866468 42.228248 -1.939660 3.328067 18.189428 0.000000 0.000000 0.000000 -10.739988 -22.214527 -74.597097 19.382083 -29.890542 5.219910 1.178413 -46.610312 -55.013912 0.000000 0.000000 0.000000 -7.125000 0.000000 0.000000 -78.060816 72.254388 59.278063 0.000000 0.000000 0.000000 6.641060 -19.613190 57.920712 -21.406465 -32.299642 -6.265746 -33.255551 -37.073484 8.866895 0.000000 0.000000 0.000000 7.125000 0.000000 0.000000 -5.603341 40.484930 -0.625993
-10.260487 17.932886 5.542874 -33.935376 76.769361 -18.545262 0.000000 0.000000 0.000000 -5.516936 -0.408206 -29.144687 2.825901 10.407750 30.307593 0.464865 0.763418 -13.178735 0.769216 -5.599529 -15.627079 0.000000 0.000000 0.000000 17.985356 11.621620 -29.083461 -1.969850 -8.803035 25.181103 -0.065969 5.143489 -5.444942 -0.000348 0.090958 -0.249860 -3.758713 1.439386 4.161960 2.158429 1.938951 5.637069 4.320844 0.838882 3.301669 4.410341 2.205669 -12.026251 -5.480677 6.849036 42.192511 -1.932217 3.319833 18.159431 0.000000 0.000000 0.000000 -10.688142 -22.189926 -74.715345 19.511442 -30.048870 5.284645 2.244394 -46.150031 -55.197269 0.000000 0.000000 0.000000 -7.125000 0.000000 0.000000 -78.284489 72.663343 59.979243 0.000000 0.000000 0.000000 6.715635 -19.640721 57.883707 -21.335653 -32.218043 -6.227914 -33.143743 -37.012164 8.791256 0.000000 0.000000 0.000000 7.125000 0.000000 0.000000 -5.503313 40.384777 -0.628274
-10.259394 17.933911 5.540685 -34.030932 76.826998 -18.646837 0.000000 0.000000 0.000000 -5.549983 -0.342645 -29.174674 2.823798 10.404197 30.295990 0.465356 0.655638 -13.140055 0.813940 -5.756949 -16.080906 0.000000 0.000000 0.000000 17.928233 11.740404 -29.005210 -1.966279 -8.795457 25.157566 -0.072231 4.927467 -5.507040 -0.001004 0.203252 -0.558467 -3.797684 1.464577 4.165878 2.192919 1.971675 5.643324 4.378236 0.853304 3.300790 4.368053 2.199746 -12.003591 -5.460064 6.846461 42.178759 -1.914881 3.316488 18.141214 0.000000 0.000000 0.000000 -10.619385 -22.155783 -74.951573 19.708728 -30.289720 5.383617 4.641845 -44.964422 -55.693635 0.000000 0.000000 0.000000 -7.125000 0.000000 0.000000 -79.073307 73.598808 61.850257 0.000000 0.000000 0.000000 6.719947 -19.627003 57.871582 -21.301752 -32.178876 -6.209881 -33.034930 -37.003330 8.665749 0.000000 0.000000 0.000000 7.125000 0.000000 0.000000 -5.405700 40.226390 -0.638292
-10.258011 17.936313 5.537483 -34.691993 76.913761 -19.308843 0.000000 0.000000 0.000000 -5.393707 -0.439671 -29.125470 2.823434 10.403615 30.293879 0.477511 0.315136 -13.173755 0.691875 -5.309812 -14.796053 0.000000 0.000000 0.000000 18.000876 11.762968 -28.941884 -1.961766 -8.786067 25.128305 -0.079000 4.745934 -5.603048 -0.001951 0.279970 -0.769188 -3.685300 1.459481 4.182837 2.240595 1.966289 5.648492 4.364187 0.854251 3.298533 4.357717 2.187881 -12.023389 -5.452276 6.838018 42.213406 -1.910732 3.313868 18.165961 0.000000 0.000000 0.000000 -10.572436 -22.152144 -74.989277 19.802042 -30.403051 5.430856 1.992145 -47.498099 -55.832005 0.000000 0.000000 0.000000 -7.125000 0.000000 0.000000 -80.339162 72.684955 62.015267 0.000000 0.000000 0.000000 6.664847 -19.605822 57.976688 -21.334944 -32.217235 -6.227569 -33.085154 -37.162518 8.567485 0.000000 0.000000 0.000000 7.125000 0.000000 0.000000 -5.449373 40.115316 -0.658455
-10.256765 17.938026 5.533775 -35.268258 77.063283 -19.866222 0.000000 0.000000 0.000000 -5.287014 -0.600972 -29.102479 2.823530 10.403767 30.294340 0.488657 -0.025320 -13.201029 0.567238 -4.808824 -13.366767 0.000000 0.000000 0.000000 18.019666 11.729476 -28.921668 -1.957208 -8.776402 25.098264 -0.085035 4.588779 -5.692949 -0.003631 0.379873 -1.043724 -3.591601 1.453330 4.178128 2.263709 1.959847 5.647003 4.335586 0.854233 3.301786 4.372861 2.154944 -12.039652 -5.452797 6.788439 42.230424 -1.922560 3.297842 18.176845 0.000000 0.000000 0.000000 -10.560655 -22.161222 -74.870566 19.759280 -30.351106 5.409277 0.847001 -48.144560 -55.859365 0.000000 0.000000 0.000000 -7.125000 0.000000 0.000000 -80.788695 72.285751 61.984748 0.000000 0.000000 0.000000 6.571779 -19.580325 58.053835 -21.388197 -32.278641 -6.255999 -33.052235 -37.255319 8.578212 0.000000 0.000000 0.000000 7.125000 0.000000 0.000000 -5.420325 40.124847 -0.653688
-10.255750 17.938981 5.529846 -35.678653 77.254035 -20.248680 0.000000 0.000000 0.000000 -5.258226 -0.769798 -29.116152 2.823763 10.404125 30.295557 0.495995 -0.308404 -13.202065 0.475351 -4.421589 -12.265808 0.000000 0.000000 0.000000 17.980003 11.655799 -28.934151 -1.953445 -8.768352 25.073281 -0.089780 4.461976 -5.764804 -0.006621 0.514217 -1.412985 -3.529539 1.454732 4.161442 2.260963 1.963388 5.641186 4.297941 0.858418 3.306189 4.399818 2.105575 -12.051864 -5.442496 6.701577 42.232745 -1.938169 3.270209 18.174039 0.000000 0.000000 0.000000 -10.561404 -22.174042 -74.739748 19.653996 -30.223174 5.356101 0.691436 -47.772469 -55.748531 0.000000 0.000000 0.000000 -7.125000 0.000000 0.000000 -80.498239 72.213505 61.612874 0.000000 0.000000 0.000000 6.487016 -19.561837 58.056444 -21.428366 -32.324951 -6.277443 -32.930065 -37.185214 8.696855 0.000000 0.000000 0.000000 7.125000 0.000000 0.000000 -5.312652 40.252834 -0.624192
-10.255168 17.938909 5.526134 -35.752824 77.457769 -20.302325 0.000000 0.000000 0.000000 -5.370829 -0.851539 -29.191488 2.823617 10.403834 30.294611 0.494030 -0.425592 -13.138084 0.482557 -4.454635 -12.359268 0.000000 0.000000 0.000000 17.862450 11.560811 -28.968215 -1.952062 -8.765441 25.064256 -0.092036 4.381691 -5.794792 -0.012153 0.708925 -1.948195 -3.527355 1.479771 4.146811 2.225006 1.997598 5.634126 4.258781 0.876397 3.304587 4.417797 2.044360 -12.058342 -5.386813 6.576527 42.222409 -1.937660 3.231704 18.155114 0.000000 0.000000 0.000000 -10.538839 -22.176153 -74.838812 19.598313 -30.155335 5.328078 0.850405 -47.650112 -55.425935 0.000000 0.000000 0.000000 -7.125000 0.000000 0.000000 -79.449655 72.215470 60.584671 0.000000 0.000000 0.000000 6.490583 -19.570936 57.890778 -21.396704 -32.288557 -6.260484 -32.690520 -36.756274 8.943096 0.000000 0.000000 0.000000 7.125000 0.000000 0.000000 -5.100693 40.519238 -0.565379
